<svg width="54" height="13" viewBox="0 0 54 13" fill="none" xmlns="http://www.w3.org/2000/svg">
<path d="M10.9432 4.14773H9.17045C9.10227 3.76894 8.97538 3.43561 8.78977 3.14773C8.60417 2.85985 8.37689 2.61553 8.10795 2.41477C7.83902 2.21401 7.53788 2.0625 7.20455 1.96023C6.875 1.85795 6.52462 1.80682 6.15341 1.80682C5.48295 1.80682 4.88258 1.97538 4.35227 2.3125C3.82576 2.64962 3.40909 3.14394 3.10227 3.79545C2.79924 4.44697 2.64773 5.24242 2.64773 6.18182C2.64773 7.12879 2.79924 7.92803 3.10227 8.57955C3.40909 9.23106 3.82765 9.72348 4.35795 10.0568C4.88826 10.3902 5.48485 10.5568 6.14773 10.5568C6.51515 10.5568 6.86364 10.5076 7.19318 10.4091C7.52652 10.3068 7.82765 10.1572 8.09659 9.96023C8.36553 9.76326 8.5928 9.52273 8.77841 9.23864C8.9678 8.95076 9.09848 8.62121 9.17045 8.25L10.9432 8.25568C10.8485 8.82765 10.6648 9.35417 10.392 9.83523C10.1231 10.3125 9.77652 10.7254 9.35227 11.0739C8.93182 11.4186 8.45076 11.6856 7.90909 11.875C7.36742 12.0644 6.77652 12.1591 6.13636 12.1591C5.12879 12.1591 4.23106 11.9205 3.44318 11.4432C2.6553 10.9621 2.03409 10.2746 1.57955 9.38068C1.12879 8.48674 0.903409 7.42045 0.903409 6.18182C0.903409 4.93939 1.13068 3.87311 1.58523 2.98295C2.03977 2.08901 2.66098 1.40341 3.44886 0.926136C4.23674 0.445075 5.13258 0.204545 6.13636 0.204545C6.75379 0.204545 7.32955 0.29356 7.86364 0.471591C8.40152 0.645833 8.88447 0.903409 9.3125 1.24432C9.74053 1.58144 10.0947 1.99432 10.375 2.48295C10.6553 2.9678 10.8447 3.52273 10.9432 4.14773ZM14.6065 0.363636V12H12.9077V0.363636H14.6065ZM20.5682 12.1761C19.75 12.1761 19.036 11.9886 18.4261 11.6136C17.8163 11.2386 17.3428 10.714 17.0057 10.0398C16.6686 9.36553 16.5 8.57765 16.5 7.67614C16.5 6.77083 16.6686 5.97917 17.0057 5.30114C17.3428 4.62311 17.8163 4.09659 18.4261 3.72159C19.036 3.34659 19.75 3.15909 20.5682 3.15909C21.3864 3.15909 22.1004 3.34659 22.7102 3.72159C23.3201 4.09659 23.7936 4.62311 24.1307 5.30114C24.4678 5.97917 24.6364 6.77083 24.6364 7.67614C24.6364 8.57765 24.4678 9.36553 24.1307 10.0398C23.7936 10.714 23.3201 11.2386 22.7102 11.6136C22.1004 11.9886 21.3864 12.1761 20.5682 12.1761ZM20.5739 10.75C21.1042 10.75 21.5436 10.6098 21.892 10.3295C22.2405 10.0492 22.4981 9.67614 22.6648 9.21023C22.8352 8.74432 22.9205 8.23106 22.9205 7.67045C22.9205 7.11364 22.8352 6.60227 22.6648 6.13636C22.4981 5.66667 22.2405 5.28977 21.892 5.00568C21.5436 4.72159 21.1042 4.57955 20.5739 4.57955C20.0398 4.57955 19.5966 4.72159 19.2443 5.00568C18.8958 5.28977 18.6364 5.66667 18.4659 6.13636C18.2992 6.60227 18.2159 7.11364 18.2159 7.67045C18.2159 8.23106 18.2992 8.74432 18.4659 9.21023C18.6364 9.67614 18.8958 10.0492 19.2443 10.3295C19.5966 10.6098 20.0398 10.75 20.5739 10.75ZM32.0611 8.38068V3.27273H33.7656V12H32.0952V10.4886H32.0043C31.8035 10.9545 31.4815 11.3428 31.0384 11.6534C30.599 11.9602 30.0516 12.1136 29.3963 12.1136C28.8357 12.1136 28.3395 11.9905 27.9077 11.7443C27.4796 11.4943 27.1425 11.125 26.8963 10.6364C26.6539 10.1477 26.5327 9.54356 26.5327 8.82386V3.27273H28.2315V8.61932C28.2315 9.21402 28.3963 9.6875 28.7259 10.0398C29.0554 10.392 29.4834 10.5682 30.0099 10.5682C30.3281 10.5682 30.6444 10.4886 30.9588 10.3295C31.277 10.1705 31.5402 9.92992 31.7486 9.60795C31.9607 9.28598 32.0649 8.87689 32.0611 8.38068ZM39.3153 12.1705C38.6108 12.1705 37.982 11.9905 37.429 11.6307C36.8797 11.267 36.4479 10.75 36.1335 10.0795C35.8229 9.4053 35.6676 8.59659 35.6676 7.65341C35.6676 6.71023 35.8248 5.90341 36.1392 5.23295C36.4574 4.5625 36.893 4.04924 37.446 3.69318C37.9991 3.33712 38.6259 3.15909 39.3267 3.15909C39.8684 3.15909 40.304 3.25 40.6335 3.43182C40.9669 3.60985 41.2244 3.81818 41.4062 4.05682C41.5919 4.29545 41.7358 4.50568 41.8381 4.6875H41.9403V0.363636H43.6392V12H41.9801V10.642H41.8381C41.7358 10.8277 41.5881 11.0398 41.3949 11.2784C41.2055 11.517 40.9441 11.7254 40.6108 11.9034C40.2775 12.0814 39.8456 12.1705 39.3153 12.1705ZM39.6903 10.7216C40.179 10.7216 40.5919 10.5928 40.929 10.3352C41.2699 10.0739 41.5275 9.71212 41.7017 9.25C41.8797 8.78788 41.9688 8.25 41.9688 7.63636C41.9688 7.0303 41.8816 6.5 41.7074 6.04545C41.5331 5.59091 41.2775 5.23674 40.9403 4.98295C40.6032 4.72917 40.1866 4.60227 39.6903 4.60227C39.179 4.60227 38.7528 4.73485 38.4119 5C38.071 5.26515 37.8134 5.62689 37.6392 6.08523C37.4688 6.54356 37.3835 7.06061 37.3835 7.63636C37.3835 8.2197 37.4706 8.74432 37.6449 9.21023C37.8191 9.67614 38.0767 10.0455 38.4176 10.3182C38.7623 10.5871 39.1866 10.7216 39.6903 10.7216ZM49.7401 12.1761C48.9219 12.1761 48.2079 11.9886 47.598 11.6136C46.9882 11.2386 46.5147 10.714 46.1776 10.0398C45.8404 9.36553 45.6719 8.57765 45.6719 7.67614C45.6719 6.77083 45.8404 5.97917 46.1776 5.30114C46.5147 4.62311 46.9882 4.09659 47.598 3.72159C48.2079 3.34659 48.9219 3.15909 49.7401 3.15909C50.5582 3.15909 51.2723 3.34659 51.8821 3.72159C52.492 4.09659 52.9654 4.62311 53.3026 5.30114C53.6397 5.97917 53.8082 6.77083 53.8082 7.67614C53.8082 8.57765 53.6397 9.36553 53.3026 10.0398C52.9654 10.714 52.492 11.2386 51.8821 11.6136C51.2723 11.9886 50.5582 12.1761 49.7401 12.1761ZM49.7457 10.75C50.276 10.75 50.7154 10.6098 51.0639 10.3295C51.4124 10.0492 51.67 9.67614 51.8366 9.21023C52.0071 8.74432 52.0923 8.23106 52.0923 7.67045C52.0923 7.11364 52.0071 6.60227 51.8366 6.13636C51.67 5.66667 51.4124 5.28977 51.0639 5.00568C50.7154 4.72159 50.276 4.57955 49.7457 4.57955C49.2116 4.57955 48.7685 4.72159 48.4162 5.00568C48.0677 5.28977 47.8082 5.66667 47.6378 6.13636C47.4711 6.60227 47.3878 7.11364 47.3878 7.67045C47.3878 8.23106 47.4711 8.74432 47.6378 9.21023C47.8082 9.67614 48.0677 10.0492 48.4162 10.3295C48.7685 10.6098 49.2116 10.75 49.7457 10.75Z" fill="white"/>
</svg>
